# xmcd CD Database Entry
#
# Track frame offsets:
# 150
# 12353
# 29778
# 46653
# 60223
# 74096
# 89811
# 105503
# 122773
# 144086
# 162601
# 175003
# 189143
# 203376
# 215278
#
# Disc length: 3054 seconds
#
# Revision: 3
# Processed by: cddbd v1.4PL0 Copyright (c) Steve Scherf et al.
# Submitted via: tcd 2.0b
#
DISCID=c80bec0f
DTITLE=Kenny Rogers - Vote for Love - 2
DYEAR=1900
DGENRE=
TTITLE0=It Had To Be You
TTITLE1=I Swear
TTITLE2=Stardust
TTITLE3=I Will Always Love You
TTITLE4=You Send Me
TTITLE5=Through The Years
TTITLE6=Unchained Melody
TTITLE7=Lady
TTITLE8=Always And Forever
TTITLE9=My Funny Valentime
TTITLE10=Somewhere My Love
TTITLE11=You Are So Beautiful
TTITLE12=You Light Up My Life
TTITLE13=Love Is A Many Splendored Thing
TTITLE14=Love Me Tender
EXTD=
EXTT0=
EXTT1=
EXTT2=
EXTT3=
EXTT4=
EXTT5=
EXTT6=
EXTT7=
EXTT8=
EXTT9=
EXTT10=
EXTT11=
EXTT12=
EXTT13=
EXTT14=
PLAYORDER=
